<?xml version="1.0" standalone="no"?><!DOCTYPE svg PUBLIC "-//W3C//DTD SVG 1.1//EN" "http://www.w3.org/Graphics/SVG/1.1/DTD/svg11.dtd"><svg t="1594802482355" class="icon" viewBox="0 0 1024 1024" version="1.1" xmlns="http://www.w3.org/2000/svg" p-id="6822" width="128" height="128" xmlns:xlink="http://www.w3.org/1999/xlink"><defs><style type="text/css"></style></defs><path d="M559 111.5l303.2 353.1c16 18.6 19.5 44 9.3 66.3-10.2 22.3-31.8 36.1-56.3 36.1H704v271.3c0 52.9-43.1 96-96 96H416c-52.9 0-96-43.1-96-96V567H208.8c-24.5 0-46.1-13.8-56.3-36.1-10.2-22.3-6.7-47.7 9.3-66.3L465 111.5c11.8-13.7 28.9-21.6 47-21.6s35.2 7.9 47 21.6zM384 503v335.3c0 17.6 14.4 32 32 32h192c17.6 0 32-14.4 32-32V503h170.8L512 155 213.2 503H384z" p-id="6823"></path></svg>